<?xml version="1.0" standalone="no"?>
<!DOCTYPE svg PUBLIC "-//W3C//DTD SVG 20010904//EN"
 "http://www.w3.org/TR/2001/REC-SVG-20010904/DTD/svg10.dtd">
<svg version="1.0" xmlns="http://www.w3.org/2000/svg"
 width="126.000000pt" height="126.000000pt" viewBox="0 0 126.000000 126.000000"
 preserveAspectRatio="xMidYMid meet">
<metadata>
Created by potrace 1.14, written by Peter Selinger 2001-2017
</metadata>
<g transform="translate(0.000000,126.000000) scale(0.100000,-0.100000)"
fill="#000000" stroke="none">
<path d="M885 1224 c-73 -15 -122 -35 -198 -81 -50 -30 -64 -34 -111 -31 -30
1 -52 0 -49 -4 2 -5 -16 -8 -41 -8 -56 0 -175 -42 -241 -85 -27 -18 -70 -54
-95 -81 -25 -26 -36 -41 -26 -33 18 13 19 13 7 -9 -7 -12 -16 -20 -21 -17 -5
3 -12 0 -16 -6 -4 -8 -3 -9 5 -5 20 13 4 -43 -23 -83 -27 -39 -50 -128 -61
-233 -6 -57 -4 -67 8 -62 11 4 14 -2 11 -25 -2 -17 1 -31 7 -31 6 0 8 -4 4 -9
-3 -5 -1 -12 4 -15 5 -3 12 -18 16 -33 3 -16 20 -49 36 -76 19 -32 29 -61 29
-88 0 -38 2 -40 28 -39 51 4 52 2 27 -49 -55 -108 -7 -141 94 -64 l33 26 77
-24 c99 -31 268 -34 348 -6 184 64 343 259 347 424 0 29 5 53 10 53 5 0 2 8
-5 17 -10 11 -10 14 -1 9 7 -4 12 -1 12 8 0 9 15 37 34 63 77 109 116 216 116
321 0 203 -155 321 -365 276z"/>
<path d="M478 1113 c6 -2 18 -2 25 0 6 3 1 5 -13 5 -14 0 -19 -2 -12 -5z"/>
</g>
</svg>
